<?xml version="1.0" encoding="utf-8"?>
<!-- Svg Vector Icons : http://www.onlinewebfonts.com/icon -->
<!DOCTYPE svg PUBLIC "-//W3C//DTD SVG 1.1//EN" "http://www.w3.org/Graphics/SVG/1.1/DTD/svg11.dtd">
<svg version="1.1" xmlns="http://www.w3.org/2000/svg" xmlns:xlink="http://www.w3.org/1999/xlink" x="0px" y="0px" viewBox="0 0 1000 1000" enable-background="new 0 0 1000 1000" xml:space="preserve">
<metadata> Svg Vector Icons : http://www.onlinewebfonts.com/icon </metadata>
<g><g transform="translate(0.000000,511.000000) scale(0.100000,-0.100000)"><path fill="rgba(107, 114, 128)" d="M8505.2,2706.4c-30.9-17.4-283.6-235.4-563.3-484.2l-509.3-453.3L7156.8,1902c-341.5,164-588.4,256.6-912.5,339.5c-299,77.2-549.8,119.6-804.5,140.8l-189.1,15.4v-657.8v-657.8l250.8-82.9c246.9-83,681-283.6,686.8-320.2c1.9-9.6-555.6-518.9-1242.4-1128.5C3526.1-1713.2,3601.4-1630.3,3601.4-1925.4c0-142.8,7.7-189.1,44.4-254.6c88.7-167.8,266.2-293.2,461.1-324.1c98.4-15.4,285.5,28.9,382,90.7c81,52.1,4246,4734.1,4300,4832.5c34.7,63.7,34.7,75.2,9.6,146.6C8752.2,2696.8,8613.3,2764.3,8505.2,2706.4z M4301.6-1653.4c223.8-115.7,221.9-432.1-1.9-534.4c-106.1-48.2-164-46.3-264.3,7.7c-266.2,140.8-167.8,553.7,131.2,553.7C4212.9-1626.4,4272.7-1638,4301.6-1653.4z"/><path fill="rgba(107, 114, 128)" d="M4672,2392c-320.2-30.9-484.2-54-677.1-94.5c-619.3-129.2-1188.3-368.5-1713.1-715.7l-218-146.6l335.7-335.7l335.7-335.7l115.7,57.9c272,135,578.7,233.4,943.3,302.9c127.3,25.1,275.9,34.7,563.3,34.7l391.6,1.9v623.1c0,341.5-1.9,619.2-3.9,617.3C4741.5,2401.6,4708.7,2395.8,4672,2392z"/><path fill="rgba(107, 114, 128)" d="M1454.3,891.1C873.6,287.3,464.6-430.4,244.7-1231C177.2-1476,100-1890.7,100-2004.6v-65.6h364.6h364.6l11.6,54c5.8,28.9,19.3,117.7,30.9,196.8C999-982.1,1483.2-154.5,2160.3,389.5l140.8,111.9l-304.8,306.7c-167.8,167.8-310.6,304.8-316.4,304.8C1672.2,1112.9,1571.9,1012.6,1454.3,891.1z"/><path fill="rgba(107, 114, 128)" d="M7712.4,516.8L7118.2-77.3l94.5-123.5c383.9-493.8,619.2-1035.9,717.6-1657.1l32.8-202.6l968.4-5.8l968.4-3.9v65.6c0,113.8-77.2,528.6-144.7,773.6C9535.4-432.3,9124.5,289.2,8545.7,891.1c-117.7,121.5-218,221.8-225.7,221.8C8314.2,1112.9,8040.3,844.8,7712.4,516.8z"/></g></g>
</svg>